<svg  viewBox="0 0 534 214" fill="none" xmlns="http://www.w3.org/2000/svg">
<path d="M286.388 17.931C275.892 24.9916 263.627 26.3864 219.33 13.4095C190.839 5.06196 171.035 26.6264 171 55.0601C170.983 69.1743 173.519 82.8329 179.537 94.6307C186.726 108.71 216.599 137.537 221.068 112.884C239.482 11.3226 243.304 85.4067 262.762 84.0155C275.937 83.0729 278.744 -5.02462 309.667 117.058C318.079 150.27 362.097 91.7091 362.097 55.0601C362.097 41.5058 359.797 28.3724 354.203 16.9293C340.243 -11.6331 307.583 3.67071 286.388 17.931Z" fill="url(#paint0_radial_1804_25302)"/>
<mask id="mask0_1804_25302" style="mask-type:alpha" maskUnits="userSpaceOnUse" x="171" y="0" width="192" height="127">
<path d="M286.388 17.931C275.892 24.9916 263.627 26.3864 219.33 13.4095C190.839 5.06196 171.035 26.6264 171 55.0601C170.983 69.1743 173.519 82.8329 179.537 94.6307C186.726 108.71 216.599 137.537 221.068 112.884C239.482 11.3226 243.304 85.4067 262.762 84.0155C275.937 83.0729 278.744 -5.02462 309.667 117.058C318.079 150.27 362.097 91.7091 362.097 55.0601C362.097 41.5058 359.797 28.3724 354.203 16.9293C340.243 -11.6331 307.583 3.67071 286.388 17.931Z" fill="white"/>
</mask>
<g mask="url(#mask0_1804_25302)">
<path d="M191.937 120.883C191.937 120.883 209.657 60.3639 256.563 108.71C297.193 150.587 351.416 93.7539 351.416 93.7539L347.942 146.274L263.512 164.012H175.259L191.937 120.883Z" fill="url(#paint1_linear_1804_25302)"/>
<path d="M232.242 -9.89425C232.242 -9.89425 191.243 -9.89425 199.234 46.4515C202.938 72.5618 198.091 102.39 155.914 112.428C113.737 122.466 141.665 -17.5114 141.665 -17.5114L249.962 -78.7612L232.242 -9.89425Z" fill="url(#paint2_radial_1804_25302)"/>
<path d="M266.615 -18.3702C266.615 -18.3702 262.435 47.589 303.316 46.2082C344.197 44.8309 362.105 61.9294 362.223 91.5248C362.341 121.12 416.957 30.654 416.957 30.654L345.021 -51.8438L266.615 -18.3702Z" fill="url(#paint3_radial_1804_25302)"/>
</g>
<circle cx="249.827" cy="117.487" r="7.35718" fill="#147072"/>
<circle cx="279.256" cy="117.487" r="7.35718" fill="#147072"/>
<path d="M8.496 152.904L2.88 151.968V147.504H13.608C15.24 147.504 17.352 147.408 19.944 147.216C20.568 147.168 21.312 147.12 22.176 147.072C23.04 147.024 24.048 147 25.2 147C32.448 147 37.512 148.032 40.392 150.096C43.32 152.112 44.784 155.136 44.784 159.168C44.784 162.72 43.704 165.696 41.544 168.096C39.432 170.448 36.648 171.888 33.192 172.416C37.944 172.368 41.664 173.448 44.352 175.656C47.088 177.864 48.456 180.936 48.456 184.872C48.456 189.864 46.704 193.872 43.2 196.896C39.696 199.92 33.84 201.432 25.632 201.432C23.472 201.432 21.48 201.36 19.656 201.216C19.176 201.216 18.36 201.168 17.208 201.072C16.056 201.024 14.88 201 13.68 201H2.808V196.68L8.496 195.96V152.904ZM18.936 170.832C19.464 170.88 20.544 170.904 22.176 170.904H25.56C28.488 170.904 30.672 169.992 32.112 168.168C33.552 166.344 34.272 163.776 34.272 160.464C34.272 157.296 33.528 154.992 32.04 153.552C30.552 152.112 28.08 151.392 24.624 151.392C23.712 151.392 21.816 151.488 18.936 151.68V170.832ZM18.936 196.248C20.04 196.68 22.152 196.896 25.272 196.896C29.352 196.896 32.304 195.936 34.128 194.016C35.952 192.096 36.864 189.312 36.864 185.664C36.864 182.16 36.024 179.664 34.344 178.176C32.712 176.64 30.096 175.872 26.496 175.872C22.464 175.872 19.944 175.92 18.936 176.016V196.248ZM53.2136 189.768C53.2136 185.4 55.3976 182.112 59.7656 179.904C64.1816 177.696 69.8696 176.568 76.8296 176.52V174.864C76.8296 172.896 76.6136 171.36 76.1816 170.256C75.7976 169.152 75.0536 168.336 73.9496 167.808C72.8936 167.232 71.3336 166.944 69.2696 166.944C66.9176 166.944 64.8056 167.256 62.9336 167.88C61.0616 168.456 59.1176 169.224 57.1016 170.184L54.8696 165.576C55.5896 164.952 56.7896 164.208 58.4696 163.344C60.1976 162.48 62.2376 161.736 64.5896 161.112C66.9416 160.44 69.3656 160.104 71.8616 160.104C75.5576 160.104 78.4376 160.584 80.5016 161.544C82.6136 162.504 84.1256 164.04 85.0376 166.152C85.9496 168.264 86.4056 171.096 86.4056 174.648V196.68H90.2936V200.712C89.3336 200.952 87.9656 201.192 86.1896 201.432C84.4136 201.672 82.8536 201.792 81.5096 201.792C79.8776 201.792 78.7736 201.552 78.1976 201.072C77.6696 200.592 77.4056 199.608 77.4056 198.12V196.176C76.1096 197.616 74.4296 198.912 72.3656 200.064C70.3016 201.216 67.9736 201.792 65.3816 201.792C63.1736 201.792 61.1336 201.336 59.2616 200.424C57.4376 199.464 55.9736 198.096 54.8696 196.32C53.7656 194.496 53.2136 192.312 53.2136 189.768ZM69.9896 195.816C70.9976 195.816 72.1496 195.528 73.4456 194.952C74.7416 194.328 75.8696 193.584 76.8296 192.72V180.912C72.5096 180.912 69.2696 181.656 67.1096 183.144C64.9976 184.584 63.9416 186.456 63.9416 188.76C63.9416 191.064 64.4696 192.816 65.5256 194.016C66.6296 195.216 68.1176 195.816 69.9896 195.816ZM94.7869 196.752L99.5389 196.176V167.808L94.9309 166.512V161.544L106.091 160.032H106.307L108.107 161.472V163.056L107.891 168.888H108.107C108.443 167.928 109.235 166.752 110.483 165.36C111.731 163.92 113.291 162.672 115.163 161.616C117.083 160.512 119.147 159.96 121.355 159.96C122.411 159.96 123.323 160.104 124.091 160.392V171.192C122.651 170.184 120.899 169.68 118.835 169.68C115.331 169.68 112.283 170.616 109.691 172.488V196.104L118.043 196.752V201H94.7869V196.752ZM125.438 143.544L138.614 141.96H138.758L140.774 143.328V164.568C142.07 163.272 143.654 162.192 145.526 161.328C147.446 160.416 149.51 159.96 151.718 159.96C156.326 159.96 160.07 161.592 162.95 164.856C165.878 168.072 167.342 173.016 167.342 179.688C167.342 183.816 166.478 187.56 164.75 190.92C163.022 194.28 160.526 196.944 157.262 198.912C154.046 200.832 150.302 201.792 146.03 201.792C142.238 201.792 138.95 201.48 136.166 200.856C133.382 200.184 131.606 199.584 130.838 199.056V148.152L125.438 147.288V143.544ZM147.902 166.296C146.462 166.296 145.094 166.632 143.798 167.304C142.55 167.928 141.542 168.648 140.774 169.464V195.744C141.062 196.272 141.734 196.704 142.79 197.04C143.846 197.376 145.046 197.544 146.39 197.544C149.462 197.544 151.91 196.128 153.734 193.296C155.606 190.416 156.542 186.168 156.542 180.552C156.542 175.704 155.75 172.128 154.166 169.824C152.582 167.472 150.494 166.296 147.902 166.296ZM191.329 201.792C184.993 201.792 180.265 199.944 177.145 196.248C174.073 192.504 172.537 187.416 172.537 180.984C172.537 176.664 173.329 172.92 174.913 169.752C176.545 166.584 178.825 164.16 181.753 162.48C184.681 160.8 188.065 159.96 191.905 159.96C196.705 159.96 200.401 161.232 202.993 163.776C205.585 166.272 206.929 169.848 207.025 174.504C207.025 177.672 206.833 180.024 206.449 181.56H183.049C183.241 185.928 184.273 189.336 186.145 191.784C188.017 194.184 190.681 195.384 194.137 195.384C196.009 195.384 197.929 195.072 199.897 194.448C201.913 193.824 203.497 193.08 204.649 192.216L206.449 196.176C205.153 197.568 203.041 198.864 200.113 200.064C197.233 201.216 194.305 201.792 191.329 201.792ZM196.945 177.24C197.041 175.896 197.089 174.864 197.089 174.144C197.089 167.76 194.953 164.568 190.681 164.568C188.329 164.568 186.505 165.504 185.209 167.376C183.913 169.248 183.193 172.536 183.049 177.24H196.945ZM212.771 196.752L217.523 196.176V167.808L212.915 166.512V161.544L224.075 160.032H224.291L226.091 161.472V163.056L225.875 168.888H226.091C226.427 167.928 227.219 166.752 228.467 165.36C229.715 163.92 231.275 162.672 233.147 161.616C235.067 160.512 237.131 159.96 239.339 159.96C240.395 159.96 241.307 160.104 242.075 160.392V171.192C240.635 170.184 238.883 169.68 236.819 169.68C233.315 169.68 230.267 170.616 227.675 172.488V196.104L236.027 196.752V201H212.771V196.752ZM269.076 152.904L263.748 151.968V147.504H285.636V151.968L279.588 152.904V170.976H301.476V152.904L295.932 151.968V147.504H317.532V151.968L312.06 152.904V195.96L317.532 196.68V201H295.86V196.68L301.476 195.96V176.448H279.588V195.96L285.636 196.68V201H263.604V196.68L269.076 195.96V152.904ZM342.009 201.792C335.673 201.792 330.945 199.944 327.825 196.248C324.753 192.504 323.217 187.416 323.217 180.984C323.217 176.664 324.009 172.92 325.593 169.752C327.225 166.584 329.505 164.16 332.433 162.48C335.361 160.8 338.745 159.96 342.585 159.96C347.385 159.96 351.081 161.232 353.673 163.776C356.265 166.272 357.609 169.848 357.705 174.504C357.705 177.672 357.513 180.024 357.129 181.56H333.729C333.921 185.928 334.953 189.336 336.825 191.784C338.697 194.184 341.361 195.384 344.817 195.384C346.689 195.384 348.609 195.072 350.577 194.448C352.593 193.824 354.177 193.08 355.329 192.216L357.129 196.176C355.833 197.568 353.721 198.864 350.793 200.064C347.913 201.216 344.985 201.792 342.009 201.792ZM347.625 177.24C347.721 175.896 347.769 174.864 347.769 174.144C347.769 167.76 345.633 164.568 341.361 164.568C339.009 164.568 337.185 165.504 335.889 167.376C334.593 169.248 333.873 172.536 333.729 177.24H347.625ZM362.659 189.768C362.659 185.4 364.843 182.112 369.211 179.904C373.627 177.696 379.315 176.568 386.275 176.52V174.864C386.275 172.896 386.059 171.36 385.627 170.256C385.243 169.152 384.499 168.336 383.395 167.808C382.339 167.232 380.779 166.944 378.715 166.944C376.363 166.944 374.251 167.256 372.379 167.88C370.507 168.456 368.563 169.224 366.547 170.184L364.315 165.576C365.035 164.952 366.235 164.208 367.915 163.344C369.643 162.48 371.683 161.736 374.035 161.112C376.387 160.44 378.811 160.104 381.307 160.104C385.003 160.104 387.883 160.584 389.947 161.544C392.059 162.504 393.571 164.04 394.483 166.152C395.395 168.264 395.851 171.096 395.851 174.648V196.68H399.739V200.712C398.779 200.952 397.411 201.192 395.635 201.432C393.859 201.672 392.299 201.792 390.955 201.792C389.323 201.792 388.219 201.552 387.643 201.072C387.115 200.592 386.851 199.608 386.851 198.12V196.176C385.555 197.616 383.875 198.912 381.811 200.064C379.747 201.216 377.419 201.792 374.827 201.792C372.619 201.792 370.579 201.336 368.707 200.424C366.883 199.464 365.419 198.096 364.315 196.32C363.211 194.496 362.659 192.312 362.659 189.768ZM379.435 195.816C380.443 195.816 381.595 195.528 382.891 194.952C384.187 194.328 385.315 193.584 386.275 192.72V180.912C381.955 180.912 378.715 181.656 376.555 183.144C374.443 184.584 373.387 186.456 373.387 188.76C373.387 191.064 373.915 192.816 374.971 194.016C376.075 195.216 377.563 195.816 379.435 195.816ZM400.56 160.968H419.568V165.144L414.816 166.08L421.368 185.664L423.672 193.296L425.616 185.88L432.024 166.08L427.488 165.144V160.968H443.328V165.144L439.584 166.08L426.192 201.576H417.84L403.512 166.08L400.56 165.144V160.968ZM463.509 201.792C457.173 201.792 452.445 199.944 449.325 196.248C446.253 192.504 444.717 187.416 444.717 180.984C444.717 176.664 445.509 172.92 447.093 169.752C448.725 166.584 451.005 164.16 453.933 162.48C456.861 160.8 460.245 159.96 464.085 159.96C468.885 159.96 472.581 161.232 475.173 163.776C477.765 166.272 479.109 169.848 479.205 174.504C479.205 177.672 479.013 180.024 478.629 181.56H455.229C455.421 185.928 456.453 189.336 458.325 191.784C460.197 194.184 462.861 195.384 466.317 195.384C468.189 195.384 470.109 195.072 472.077 194.448C474.093 193.824 475.677 193.08 476.829 192.216L478.629 196.176C477.333 197.568 475.221 198.864 472.293 200.064C469.413 201.216 466.485 201.792 463.509 201.792ZM469.125 177.24C469.221 175.896 469.269 174.864 469.269 174.144C469.269 167.76 467.133 164.568 462.861 164.568C460.509 164.568 458.685 165.504 457.389 167.376C456.093 169.248 455.373 172.536 455.229 177.24H469.125ZM488.983 167.808L484.375 166.512V161.544L496.327 160.032H496.543L498.343 161.472V164.28L498.271 166.008C499.951 164.424 502.135 163.056 504.823 161.904C507.511 160.752 510.223 160.176 512.959 160.176C515.887 160.176 518.167 160.728 519.799 161.832C521.479 162.888 522.679 164.568 523.399 166.872C524.119 169.176 524.479 172.296 524.479 176.232V196.104L528.871 196.68V201H510.295V196.68L514.183 196.104V176.232C514.183 173.736 514.015 171.792 513.679 170.4C513.343 168.96 512.719 167.928 511.807 167.304C510.943 166.632 509.695 166.296 508.063 166.296C505.327 166.296 502.399 167.472 499.279 169.824V196.032L503.599 196.68V201H484.807V196.68L488.983 196.032V167.808Z" fill="#803E62"/>
<defs>
<radialGradient id="paint0_radial_1804_25302" cx="0" cy="0" r="1" gradientUnits="userSpaceOnUse" gradientTransform="translate(266.551 63.8587) rotate(-0.0175754) scale(170.62 170.799)">
<stop stop-color="#147072"/>
<stop offset="1" stop-color="#072725"/>
</radialGradient>
<linearGradient id="paint1_linear_1804_25302" x1="159.909" y1="119.258" x2="398.786" y2="136.252" gradientUnits="userSpaceOnUse">
<stop stop-color="#147072"/>
<stop offset="1" stop-color="#072725"/>
</linearGradient>
<radialGradient id="paint2_radial_1804_25302" cx="0" cy="0" r="1" gradientUnits="userSpaceOnUse" gradientTransform="translate(191.282 17.0909) rotate(-0.0435159) scale(104.787 259.719)">
<stop stop-color="#147072"/>
<stop offset="1" stop-color="#072725"/>
</radialGradient>
<radialGradient id="paint3_radial_1804_25302" cx="0" cy="0" r="1" gradientUnits="userSpaceOnUse" gradientTransform="translate(341.727 22.8145) rotate(-0.026438) scale(134.339 202.293)">
<stop stop-color="#147072"/>
<stop offset="1" stop-color="#072725"/>
</radialGradient>
</defs>
</svg>
