<svg width="21" height="26" viewBox="0 0 21 26" fill="none" xmlns="http://www.w3.org/2000/svg">
<path d="M18.2 5.2H15.6C15.6 2.327 13.273 0 10.4 0C7.527 0 5.2 2.327 5.2 5.2H2.6C1.17 5.2 0 6.37 0 7.8V23.4C0 24.83 1.17 26 2.6 26H18.2C19.63 26 20.8 24.83 20.8 23.4V7.8C20.8 6.37 19.63 5.2 18.2 5.2ZM10.4 2.6C11.83 2.6 13 3.77 13 5.2H7.8C7.8 3.77 8.97 2.6 10.4 2.6ZM18.2 23.4H2.6V7.8H5.2V10.4C5.2 11.115 5.785 11.7 6.5 11.7C7.215 11.7 7.8 11.115 7.8 10.4V7.8H13V10.4C13 11.115 13.585 11.7 14.3 11.7C15.015 11.7 15.6 11.115 15.6 10.4V7.8H18.2V23.4Z" fill="#23263B"/>
</svg>
