<svg width="26" height="26" viewBox="0 0 26 26" fill="none" xmlns="http://www.w3.org/2000/svg">
<path d="M13 3.25C14.7875 3.25 16.25 4.7125 16.25 6.5C16.25 8.2875 14.7875 9.75 13 9.75C11.2125 9.75 9.75 8.2875 9.75 6.5C9.75 4.7125 11.2125 3.25 13 3.25ZM13 19.5C17.3875 19.5 22.425 21.5963 22.75 22.75H3.25C3.62375 21.58 8.62875 19.5 13 19.5ZM13 0C9.40875 0 6.5 2.90875 6.5 6.5C6.5 10.0913 9.40875 13 13 13C16.5913 13 19.5 10.0913 19.5 6.5C19.5 2.90875 16.5913 0 13 0ZM13 16.25C8.66125 16.25 0 18.4275 0 22.75V26H26V22.75C26 18.4275 17.3388 16.25 13 16.25Z" fill="#23263B"/>
</svg>
