<svg width="16" height="17" viewBox="0 0 16 17" fill="none" xmlns="http://www.w3.org/2000/svg">
<path d="M15.8 15.0168L11.6 10.8168C12.6 9.6168 13.1 8.2168 13.1 6.7168C13.1 3.1168 10.2 0.216797 6.6 0.216797C2.9 0.216797 0 3.1168 0 6.7168C0 10.3168 2.9 13.2168 6.5 13.2168C8 13.2168 9.4 12.7168 10.6 11.7168L14.8 15.9168C14.9 16.0168 15.1 16.1168 15.3 16.1168C15.5 16.1168 15.7 16.0168 15.8 15.9168C15.9 15.8168 16 15.6168 16 15.4168C16 15.3168 15.9 15.1168 15.8 15.0168ZM6.5 11.8168C3.7 11.8168 1.4 9.5168 1.4 6.7168C1.4 3.9168 3.7 1.6168 6.5 1.6168C9.3 1.6168 11.6 3.9168 11.6 6.7168C11.6 9.6168 9.4 11.8168 6.5 11.8168Z" fill="#03120e4d"/>
</svg>
